<?xml version="1.0" encoding="UTF-8" standalone="no"?>
<!--?xml version="1.0" standalone="no"?-->
<svg xmlns="http://www.w3.org/2000/svg" height="224pt" width="300pt" version="1.0" preserveAspectRatio="xMidYMid meet" viewBox="0 0 300.000000 224.000000">
 <g transform="translate(0 224) scale(0.1 -0.1)" fill="#07674A">
  <path id="node1" d="m1476 2039c-48-14-94-51-115-95-42-83-18-120 36-56 38 46 93 67 140 56 15-4 55-25 88-48 33-22 62-42 64-43 2-2 2-5 0-8-3-2-39 10-81 27-72 30-79 31-119 19-73-22-138-108-95-124 8-3 22 3 32 14 21 23 59 24 124 3l50-16-58-38c-69-45-103-80-134-140-19-38-23-59-23-140 1-82 4-102 27-145 31-60 69-100 123-128 32-17 57-22 125-22 73 0 92 4 136 27 98 51 144 138 144 267 0 83-13 131-53 192-36 54-65 74-125 87-32 8-44 7-53-5-10-11-4-22 29-56 59-60 72-99 72-215 0-82-4-105-22-142-31-60-68-85-124-84-92 2-146 81-152 224-6 139 37 213 170 291 91 53 128 86 128 114 0 27-14 40-54 49-16 4-52 28-80 52-79 71-146 99-200 83z" class="node"/>
  <path id="node2" d="m157 1733c-16-15-6-43 17-49 28-7 35-20 77-139 139-396 145-409 193-387 18 8 31 32 55 109 53 163 51 162 95 31 48-143 67-167 109-136 17 13 41 84 102 298 46 160 67 214 88 218 16 3 17-14 17-220v-224l-30-11c-35-13-40-40-7-48 12-3 65-5 117-3 87 3 95 5 95 23 0 12-11 25-27 33-28 13-28 14-28 113 0 117 0 117 107 109l68-5 3-106 3-107-31-11c-22-7-31-16-28-28 3-16 16-18 118-18s115 2 118 18c3 12-6 21-27 28l-31 11v223c0 221 0 224 21 227 31 4 49 35 29 48-16 11-189 14-214 4-27-10-19-41 14-53l31-10-3-73-3-73-87-3-88-3v68c0 73 5 86 33 96 24 9 33 37 16 48-16 10-298 12-323 3-25-10-19-43 9-50 14-3 25-11 25-18 0-11-42-158-78-271l-19-60-27 90c-15 50-38 121-51 158-28 77-31 97-12 97 7 0 22 6 32 14 16 12 17 16 6 30-11 12-33 16-101 16-49 0-95-3-104-6-24-9-19-43 7-53 16-6 29-28 47-77l25-69-33-100c-18-55-35-101-36-103-4-4-52 126-89 242-20 63-27 101-21 103 28 9 45 30 38 46-5 15-21 17-108 17-57 0-106-3-109-7z" class="node"/>
  <path id="node3" d="m1957 1733c-13-13-7-44 11-50 9-4 20-11 24-17 12-17 9-405-2-427-6-10-17-19-25-19-9 0-15-10-15-24 0-31 7-32 218-28l173 3 20 45c23 56 24 73 2 81-11 4-23-3-37-20-28-35-53-43-129-39l-65 4-7 34c-7 39-6 348 2 381 3 13 14 23 26 25 25 3 35 37 15 49-15 10-202 12-211 2z" class="node"/>
  <path id="node4" d="m2401 1726c-15-18-3-46 20-46 18 0 19-11 19-226s-1-226-19-231c-23-6-32-25-22-42 6-9 58-12 196-11 103 0 191 3 196 6 13 7 39 72 39 95 0 32-22 33-48 4-20-23-36-30-83-36-32-4-73-4-91 0l-33 7v104 105l61 3c48 2 63 7 66 20 9 34-2 42-62 42-35 0-62 5-66 12-9 14-8 114 1 128 3 6 39 10 80 10 67 0 76-2 99-26 32-36 61-27 52 16-3 17-13 41-22 55l-16 25h-178c-138 0-180-3-189-14z" class="node"/>
  <path id="node5" d="m861 1099c-118-36-181-135-181-283 0-127 38-210 123-263 32-20 57-26 122-31 137-8 214 29 263 127l30 61 11-31c16-47 69-108 115-131 58-30 189-37 252-13 70 26 108 66 139 143 37 92 37 189 0 270-31 68-55 95-115 130-40 24-56 27-135 27-73 0-98-4-131-22-48-26-101-83-121-131l-14-35-23 50c-24 50-65 91-119 119-37 20-169 27-216 13zm161-81c49-34 71-98 72-203 0-70-5-100-21-135-42-91-116-123-182-78-55 37-73 77-79 177-6 117 9 179 55 225 31 30 43 36 81 36 29 0 54-7 74-22zm537-3c45-39 66-104 66-210 0-139-42-210-132-222-48-6-98 26-127 82-18 34-21 58-21 150 0 102 2 113 27 152 36 55 64 73 114 73 31 0 51-7 73-25z" class="node"/>
  <path id="node6" d="m1877 1100c-86-15-126-60-72-80l25-10v-198-199l-26-12c-36-16-27-43 21-61 28-10 82-15 175-15 146 0 186 11 237 67 53 58 68 106 68 223 0 124-13 162-72 220-56 54-96 68-208 71-55 2-122-1-148-6zm210-70c18-10 45-38 60-61 23-35 28-54 31-129 7-142-40-239-123-254-38-7-86 2-97 18-14 20-9 400 5 418 25 33 78 36 124 8z" class="node"/>
  <path id="node7" d="m2425 1096c-57-25-79-60-80-124 0-73 18-97 136-181 126-89 152-161 74-198-45-22-102-6-148 42-43 44-77 47-77 8 0-16 6-48 14-73l13-45h126c111 0 129 2 153 21 49 36 66 68 67 122 1 68-25 121-81 165-26 20-71 54-99 77-85 66-85 122 2 128 44 3 50 0 86-38 65-68 89-41 59 70l-9 35-103 2c-68 1-113-3-133-11z" class="node"/>
  <path id="node8" d="m297 1094c-16-16-6-42 18-48l25-6-2-228-3-227-23-3c-17-3-22-9-20-25 3-21 9-22 116-25 71-2 113 1 114 8 4 29 1 35-22 40-25 6-25 7-28 123l-3 117h66 65v30 30h-65-65v74c0 84 2 86 81 86 41 0 54-5 81-30 55-53 76-37 49 36l-19 49-179 3c-99 1-182-1-186-4z" class="node"/>
  <path id="node9" d="m284 449c-50-24-69-57-69-120 0-53 25-96 68-117 20-10 277-12 1222-12 1346 0 1240-6 1277 77 17 39 19 52 9 83-16 54-44 85-89 98-30 9-336 12-1208 11-1141 0-1170-1-1210-20zm719-80c10-19 28-49 39-66l20-33h-36c-27 0-34 3-30 15 5 12-3 15-36 15s-41-3-36-15c4-11-2-15-20-15-24 0-24 0-8 33 34 65 65 108 77 104 6-2 20-19 30-38zm396 30c35-12 42-42 14-58-16-10-15-14 15-41l32-30-32 1c-24 0-39 8-56 29-23 29-23 29-2 40 28 15 26 48-4 56-14 3-30 3-35-1-15-9-14-98 1-113 9-9 4-12-22-12h-35v65c0 56 2 65 20 68 39 8 73 7 104-4zm1152-13c-13-15-12-87 2-103 7-10 0-13-29-13-30 0-35 3-26 12 15 15 16 90 1 105-8 8-20 8-35 3-14-6-24-6-24 0 0 11 34 16 83 11 28-2 35-6 28-15zm-2019-13l28-27 28 27c15 15 37 27 48 27 17 0 19-7 19-65 0-63-1-65-25-65s-25 3-22 45c5 52-2 55-38 20l-26-25-24 25c-34 36-43 31-38-20 3-42 1-45-21-45-19 0-21 2-11 15 7 8 11 35 8 65-3 47-2 50 21 50 14 0 38-12 53-27zm1199-29c-2-40 1-59 10-65s-2-8-31-8c-25 0-39 3-32 6s12 25 12 58-5 55-12 58 3 6 22 6l35 1-4-56zm95 35c-34-26-33-36 6-76l32-33h-25c-15 0-38 13-57 33-32 33-32 33-12 52 11 10 20 24 20 32s12 13 31 13h32l-27-21zm314 6c-16-19-4-35 28-36 27-1 27-1-3-8-24-5-30-12-30-31 0-22 5-25 39-28 24-2 42 2 47 10 4 7 11 9 14 6 18-18-13-28-82-28-66 0-74 2-63 15 9 10 11 32 7 65l-6 50h31c25 0 28-2 18-15zm85 4c11-16 2-17-25-2-24 12-24 13-3 13 12 0 25-5 28-11zm385-5c0-14-3-14-15-4-8 7-15 14-15 16s7 4 15 4 15-7 15-16z" class="node"/>
  <path id="node10" d="m947 363c-15-15-7-43 13-43 21 0 24 8 14 34-7 17-16 20-27 9z" class="node"/>
 </g>
 <g transform="translate(0 224) scale(0.1 -0.1)" fill="#fff">
  <path id="node15" d="m937 373c-13-21-32-53-41-70-16-33-16-33 8-33 18 0 24 4 20 15-5 12 3 15 36 15s41-3 36-15c-4-12 3-15 30-15h36l-20 33c-11 17-29 47-39 66-26 48-38 48-66 4zm37-19c10-26 7-34-14-34-13 0-20 7-20 18 0 33 23 44 34 16z" class="node"/>
  <path id="node16" d="m1295 403c-18-3-20-12-20-68v-65h35c26 0 31 3 22 12-15 15-16 104-1 113 5 4 21 4 35 1 30-8 32-41 4-56-21-11-21-11 2-40 17-21 32-29 56-29l32-1-32 30c-30 27-31 31-15 41 9 5 17 18 17 29 0 30-68 47-135 33z" class="node"/>
  <path id="node17" d="m2463 402c-13-2-23-7-23-12 0-6 10-6 24 0 15 5 27 5 35-3 15-15 14-90-1-105-9-9-4-12 26-12 29 0 36 3 29 13-14 16-15 88-2 103 7 9 0 13-28 15-21 2-48 3-60 1z" class="node"/>
  <path id="node18" d="m458 350c3-30-1-57-8-65-10-13-8-15 11-15 22 0 24 3 21 45-5 51 4 56 38 20l24-25 26 25c36 35 43 32 38-20-3-42-2-45 22-45s25 2 25 65c0 58-2 65-19 65-11 0-33-12-48-27l-28-27-28 27c-15 15-39 27-53 27-23 0-24-3-21-50z" class="node"/>
  <path id="node19" d="m1678 393c7-3 12-25 12-58s-5-55-12-58 7-6 32-6c29 0 40 2 31 8s-12 25-10 65l4 56-35-1c-19 0-29-3-22-6z" class="node"/>
  <path id="node20" d="m1790 387c0-8-9-22-20-32-20-19-20-19 12-52 19-20 42-33 57-33h25l-32 33c-39 40-40 50-6 76l27 21h-32c-19 0-31-5-31-13z" class="node"/>
  <path id="node21" d="m2097 350c4-33 2-55-7-65-11-13-3-15 63-15 69 0 100 10 82 28-3 3-10 1-14-6-5-8-23-12-47-10-34 3-39 6-39 28 0 19 6 26 30 31 30 7 30 7 3 8-32 1-44 17-28 36 10 13 7 15-18 15h-31l6-50z" class="node"/>
  <path id="node22" d="m2200 387c27-15 36-14 25 2-3 6-16 11-28 11-21 0-21-1 3-13z" class="node"/>
  <path id="node23" d="m2580 396c0-2 7-9 15-16 12-10 15-10 15 4 0 9-7 16-15 16s-15-2-15-4z" class="node"/>
 </g>
</svg>
